<?xml version="1.0" encoding="utf-8"?>
<!-- Generator: Adobe Illustrator 19.1.0, SVG Export Plug-In . SVG Version: 6.00 Build 0)  -->
<svg version="1.1" id="Слой_1" xmlns="http://www.w3.org/2000/svg" xmlns:xlink="http://www.w3.org/1999/xlink" x="0px" y="0px"
	 viewBox="-7 6.7099991 13.4652205 18.2900009" style="enable-background:new -7 6.7099991 13.4652205 18.2900009;"
	 xml:space="preserve">
<style type="text/css">
	.st0{fill:#0000FF;}
</style>
<g>
	<path class="st0" d="M-3.6313477,17.1289673l3.3657227-2.5253906l3.3369141,2.5205078l2.9041748-2.394104
		c-0.4973145-2.2955322-1.5906982-4.3959961-3.2854004-6.2341919C1.7007446,7.4226074,0.7209473,6.8861694-0.2657471,6.8815918
		c-0.9866333,0.0045776-1.9663696,0.5410156-2.9557495,1.6141968c-1.7070312,1.8515625-2.8032837,3.9695435-3.2952271,6.284668
		L-3.6313477,17.1289673z"/>
	<path class="st0" d="M3.1259766,19.6709595l-3.3955078-2.5644531l-3.4116211,2.5595703l-3.1275024-2.5448608
		c-0.0137939,0.4060669-0.0167236,0.8152466,0.0042725,1.2311401c0.2027588,4.0179443,3.0227661,6.6184082,6.5386963,6.5744629
		h0.000061h0.000061c3.5158691,0.0439453,6.3358154-2.5565186,6.5385742-6.5744629
		c0.0218506-0.432373,0.0202637-0.8582153,0.0045166-1.2799683L3.1259766,19.6709595z"/>
</g>
</svg>
