<?xml version="1.0" encoding="utf-8"?>
<!-- Generator: Adobe Illustrator 19.1.0, SVG Export Plug-In . SVG Version: 6.00 Build 0)  -->
<svg version="1.1" id="Слой_1" xmlns="http://www.w3.org/2000/svg" xmlns:xlink="http://www.w3.org/1999/xlink" x="0px" y="0px"
	 viewBox="100 100 100 100" style="enable-background:new 100 100 100 100;" xml:space="preserve" width="200px" height="200px">
<style type="text/css">
	.st0{
		fill:#0000FF;
		cursor: pointer;
	}
	.st1{fill:#111111;}
	.st2{fill:none;stroke:#FFFFFF;stroke-miterlimit:10;}
	.st0:hover {
		stroke: white;
		stroke-width: 2px;
    transition: 500ms cubic-bezier(0, 0, 0.2, 1);
	}
	.st0:active {
		stroke: white;
		stroke-width: 5px;
    transition: 200ms cubic-bezier(0, 0, 0.2, 1);
	}

	.first:active {
		fill: #FFEB3B;
	}

	.second:active {
		fill:#f44336;
	}
</style>
<g>
	<g>
		<path class="st0 first" d="M117.5,106.6l26,26c2.1,2.1,2.1,5.4,0,7.5l-26,26c-3.3,3.3-9.1,1-9.1-3.8v-52
			C108.4,105.6,114.1,103.2,117.5,106.6z"/>
		<path class="st0 second" d="M122.3,170.9l59.5-59.5c3.3-3.3,9.1-1,9.1,3.8v59.5c0,2.9-2.4,5.3-5.3,5.3l-59.5,0
			C121.3,180,119,174.3,122.3,170.9z"/>
	</g>
	<g>
		<path class="st1" d="M109.1,194.3c-0.5-0.5-0.7-1.1-0.7-1.8c0-0.8,0.2-1.4,0.7-1.8c0.5-0.5,1-0.7,1.7-0.7c0.7,0,1.2,0.3,1.6,0.8
			v-2.7h1v6.9h-1v-0.7c-0.4,0.5-0.9,0.8-1.7,0.8C110.1,195,109.6,194.8,109.1,194.3z M109.9,191.3c-0.3,0.3-0.4,0.7-0.4,1.2
			c0,0.5,0.2,0.8,0.5,1.1c0.3,0.3,0.7,0.4,1.1,0.4c0.4,0,0.8-0.1,1-0.4c0.3-0.3,0.4-0.7,0.4-1.1c0-0.5-0.1-0.9-0.4-1.2
			c-0.3-0.3-0.6-0.5-1-0.5C110.6,190.9,110.2,191,109.9,191.3z"/>
		<path class="st1" d="M115.1,194.6c-0.3-0.3-0.5-0.7-0.5-1.2s0.2-0.8,0.5-1.1c0.4-0.2,0.8-0.4,1.5-0.4h1.3v-0.2c0-0.6-0.4-1-1.1-1
			c-0.5,0-0.9,0.2-1.4,0.5l-0.5-0.6c0.6-0.5,1.3-0.7,2-0.7c0.6,0,1.1,0.1,1.4,0.4c0.4,0.3,0.6,0.8,0.6,1.4v3.2H118v-0.7
			c-0.4,0.5-0.9,0.7-1.6,0.7c0,0,0,0,0,0C115.9,195,115.4,194.9,115.1,194.6z M115.6,193.4c0,0.2,0.1,0.4,0.3,0.5
			c0.2,0.1,0.4,0.2,0.8,0.2c0.3,0,0.6-0.1,0.9-0.3c0.2-0.2,0.4-0.4,0.4-0.7v-0.4h-1.2C116,192.7,115.6,192.9,115.6,193.4z"/>
		<path class="st1" d="M119.7,190h1.1l1.5,3.7l1.5-3.7h1.1l-2,4.9h-1.2L119.7,190z"/>
		<path class="st1" d="M125.7,189c-0.1-0.1-0.2-0.3-0.2-0.5c0-0.2,0.1-0.3,0.2-0.5c0.1-0.1,0.3-0.2,0.5-0.2c0.2,0,0.3,0.1,0.5,0.2
			c0.1,0.1,0.2,0.3,0.2,0.5c0,0.2-0.1,0.3-0.2,0.5c-0.1,0.1-0.3,0.2-0.5,0.2C126,189.2,125.9,189.2,125.7,189z M125.7,194.9V190h1
			v4.9H125.7z"/>
		<path class="st1" d="M128.6,194.3c-0.5-0.5-0.7-1.1-0.7-1.8c0-0.8,0.2-1.4,0.7-1.8c0.5-0.5,1-0.7,1.7-0.7c0.7,0,1.2,0.3,1.6,0.8
			v-2.7h1v6.9h-1v-0.7c-0.4,0.5-0.9,0.8-1.7,0.8C129.6,195,129.1,194.8,128.6,194.3z M129.4,191.3c-0.3,0.3-0.4,0.7-0.4,1.2
			c0,0.5,0.2,0.8,0.5,1.1c0.3,0.3,0.7,0.4,1.1,0.4c0.4,0,0.8-0.1,1-0.4c0.3-0.3,0.4-0.7,0.4-1.1c0-0.5-0.1-0.9-0.4-1.2
			c-0.3-0.3-0.6-0.5-1-0.5C130,190.9,129.7,191,129.4,191.3z"/>
		<path class="st1" d="M137,194.9V190h1v0.9c0.1-0.3,0.4-0.5,0.7-0.7c0.3-0.2,0.6-0.3,1-0.3c0.8,0,1.3,0.3,1.6,0.9
			c0.5-0.6,1.1-0.9,1.8-0.9c0.6,0,1,0.2,1.3,0.5c0.3,0.3,0.5,0.8,0.5,1.5v3h-1v-2.7c0-0.9-0.4-1.4-1.1-1.4c-0.4,0-0.7,0.1-0.9,0.3
			c-0.3,0.2-0.4,0.6-0.4,1v2.7h-1v-2.7c0-0.5-0.1-0.8-0.3-1c-0.2-0.2-0.4-0.3-0.8-0.3s-0.7,0.1-0.9,0.4c-0.3,0.2-0.4,0.6-0.4,1v2.7
			H137z"/>
		<path class="st1" d="M146.8,194.3c-0.5-0.4-0.7-1.1-0.7-1.9c0-0.8,0.2-1.4,0.7-1.9c0.5-0.5,1.1-0.7,1.7-0.7c0.7,0,1.2,0.2,1.7,0.6
			c0.5,0.4,0.7,1,0.7,1.7v0.7h-3.9c0,0.3,0.2,0.6,0.5,0.8c0.3,0.2,0.6,0.3,1,0.3c0.6,0,1.1-0.2,1.4-0.5l0.6,0.6
			c-0.5,0.5-1.2,0.8-2.1,0.8C147.8,195,147.2,194.8,146.8,194.3z M147.1,192.1h2.8c0-0.4-0.1-0.7-0.4-1c-0.3-0.2-0.6-0.3-1-0.3
			c-0.4,0-0.7,0.1-1,0.3C147.2,191.4,147.1,191.7,147.1,192.1z"/>
		<path class="st1" d="M152.1,194.9v-6.9h1v4l2-2.1h1.3l-1.9,2l2,3h-1.3l-1.5-2.2l-0.7,0.8v1.4H152.1z"/>
		<path class="st1" d="M157.9,194.3c-0.5-0.4-0.7-1.1-0.7-1.9c0-0.8,0.2-1.4,0.7-1.9c0.5-0.5,1.1-0.7,1.7-0.7c0.7,0,1.2,0.2,1.7,0.6
			c0.5,0.4,0.7,1,0.7,1.7v0.7h-3.9c0,0.3,0.2,0.6,0.5,0.8c0.3,0.2,0.6,0.3,1,0.3c0.6,0,1.1-0.2,1.4-0.5l0.6,0.6
			c-0.5,0.5-1.2,0.8-2.1,0.8C158.9,195,158.3,194.8,157.9,194.3z M158.2,192.1h2.8c0-0.4-0.1-0.7-0.4-1c-0.3-0.2-0.6-0.3-1-0.3
			c-0.4,0-0.7,0.1-1,0.3C158.3,191.4,158.2,191.7,158.2,192.1z"/>
		<path class="st1" d="M163.2,194.9V190h1v1c0.2-0.3,0.4-0.5,0.7-0.7c0.3-0.2,0.6-0.3,0.9-0.3l0,1c0,0,0,0-0.1,0
			c-0.5,0-0.9,0.2-1.2,0.5c-0.3,0.3-0.4,0.8-0.4,1.3v2.1H163.2z"/>
		<path class="st1" d="M166.9,189c-0.1-0.1-0.2-0.3-0.2-0.5c0-0.2,0.1-0.3,0.2-0.5c0.1-0.1,0.3-0.2,0.5-0.2c0.2,0,0.3,0.1,0.5,0.2
			c0.1,0.1,0.2,0.3,0.2,0.5c0,0.2-0.1,0.3-0.2,0.5c-0.1,0.1-0.3,0.2-0.5,0.2C167.2,189.2,167,189.2,166.9,189z M166.8,194.9V190h1
			v4.9H166.8z"/>
		<path class="st1" d="M168.9,194.3l0.5-0.8c0.6,0.4,1.1,0.6,1.7,0.6c0.2,0,0.4-0.1,0.6-0.2c0.1-0.1,0.2-0.2,0.2-0.4
			c0-0.2-0.3-0.5-1-0.7c0,0-0.1,0-0.1,0c-1-0.3-1.5-0.7-1.5-1.4c0-0.5,0.2-0.8,0.5-1.1c0.4-0.3,0.8-0.4,1.4-0.4
			c0.6,0,1.1,0.2,1.6,0.5l-0.4,0.8c-0.4-0.3-0.8-0.4-1.3-0.4c-0.2,0-0.4,0-0.6,0.1c-0.2,0.1-0.2,0.2-0.2,0.4c0,0.2,0.1,0.3,0.2,0.4
			c0.1,0.1,0.3,0.1,0.5,0.2c0.2,0.1,0.4,0.1,0.5,0.1c0.2,0,0.3,0.1,0.5,0.2c0.1,0.1,0.3,0.1,0.5,0.3c0.3,0.2,0.5,0.6,0.5,1
			c0,0.5-0.2,0.8-0.5,1.1c-0.3,0.3-0.8,0.4-1.3,0.4c-0.4,0-0.7-0.1-1.1-0.2C169.6,194.7,169.2,194.5,168.9,194.3z"/>
		<path class="st1" d="M174,194.9v-6.9h1v2.8c0.1-0.3,0.4-0.5,0.7-0.7c0.3-0.2,0.6-0.3,1-0.3c0.6,0,1,0.2,1.3,0.5
			c0.3,0.3,0.5,0.8,0.5,1.5v3h-1v-2.7c0-0.9-0.4-1.4-1.1-1.4c-0.4,0-0.7,0.1-0.9,0.4c-0.3,0.2-0.4,0.6-0.4,1v2.7H174z"/>
		<path class="st1" d="M179.4,190h1.1l1.5,3.7l1.5-3.7h1.1l-2,4.9h-1.2L179.4,190z"/>
		<path class="st1" d="M185.4,189c-0.1-0.1-0.2-0.3-0.2-0.5c0-0.2,0.1-0.3,0.2-0.5c0.1-0.1,0.3-0.2,0.5-0.2c0.2,0,0.3,0.1,0.5,0.2
			c0.1,0.1,0.2,0.3,0.2,0.5c0,0.2-0.1,0.3-0.2,0.5c-0.1,0.1-0.3,0.2-0.5,0.2C185.7,189.2,185.5,189.2,185.4,189z M185.3,194.9V190h1
			v4.9H185.3z"/>
		<path class="st1" d="M187.9,194.9v-6.9h1v6.9H187.9z"/>
		<path class="st1" d="M190.5,189c-0.1-0.1-0.2-0.3-0.2-0.5c0-0.2,0.1-0.3,0.2-0.5c0.1-0.1,0.3-0.2,0.5-0.2c0.2,0,0.3,0.1,0.5,0.2
			c0.1,0.1,0.2,0.3,0.2,0.5c0,0.2-0.1,0.3-0.2,0.5c-0.1,0.1-0.3,0.2-0.5,0.2C190.7,189.2,190.6,189.2,190.5,189z M190.4,194.9V190h1
			v4.9H190.4z"/>
	</g>
</g>
</svg>
