<svg id="Слой_1" xmlns="http://www.w3.org/2000/svg" viewBox="-7 6.7099991 13.4652205 18.2900009"><style>.st0{fill:#0000FF;}</style><path class="st0" d="M-3.63 17.13l3.364-2.526 3.337 2.52 2.905-2.394c-.497-2.296-1.59-4.396-3.285-6.234C1.7 7.423.72 6.886-.266 6.882c-.986.004-1.966.54-2.955 1.614-1.71 1.85-2.805 3.97-3.297 6.284l2.886 2.35z"/><path class="st0" d="M3.126 19.67L-.27 17.108l-3.41 2.56-3.13-2.546c-.012.407-.015.816.006 1.232.202 4.018 3.022 6.62 6.538 6.575 3.516.044 6.336-2.557 6.54-6.575.02-.432.02-.858.004-1.28l-3.152 2.6z"/></svg>