<svg id="Слой_1" xmlns="http://www.w3.org/2000/svg" viewBox="100 100 100 100" width="200" height="200"><style>.st0{ fill:#0000FF; cursor: pointer; } .st1{fill:#111111;} .st2{fill:none;stroke:#FFFFFF;stroke-miterlimit:10;} .st0:hover { stroke: white; stroke-width: 2px; transition: 500ms cubic-bezier(0, 0, 0.2, 1); } .st0:active { stroke: white; stroke-width: 5px; transition: 200ms cubic-bezier(0, 0, 0.2, 1); } .first:active { fill: #FFEB3B; } .second:active { fill:#f44336; }</style><path class="st0 first" d="M117.5 106.6l26 26c2.1 2.1 2.1 5.4 0 7.5l-26 26c-3.3 3.3-9.1 1-9.1-3.8v-52c0-4.7 5.7-7.1 9.1-3.7z"/><path class="st0 second" d="M122.3 170.9l59.5-59.5c3.3-3.3 9.1-1 9.1 3.8v59.5c0 2.9-2.4 5.3-5.3 5.3h-59.5c-4.8 0-7.1-5.7-3.8-9.1z"/><g><path class="st1" d="M109.1 194.3c-.5-.5-.7-1.1-.7-1.8 0-.8.2-1.4.7-1.8.5-.5 1-.7 1.7-.7s1.2.3 1.6.8v-2.7h1v6.9h-1v-.7c-.4.5-.9.8-1.7.8-.6-.1-1.1-.3-1.6-.8zm.8-3c-.3.3-.4.7-.4 1.2s.2.8.5 1.1c.3.3.7.4 1.1.4.4 0 .8-.1 1-.4.3-.3.4-.7.4-1.1 0-.5-.1-.9-.4-1.2-.3-.3-.6-.5-1-.5-.5.1-.9.2-1.2.5zM115.1 194.6c-.3-.3-.5-.7-.5-1.2s.2-.8.5-1.1c.4-.2.8-.4 1.5-.4h1.3v-.2c0-.6-.4-1-1.1-1-.5 0-.9.2-1.4.5l-.5-.6c.6-.5 1.3-.7 2-.7.6 0 1.1.1 1.4.4.4.3.6.8.6 1.4v3.2h-.9v-.7c-.4.5-.9.7-1.6.7-.5.1-1 0-1.3-.3zm.5-1.2c0 .2.1.4.3.5.2.1.4.2.8.2.3 0 .6-.1.9-.3.2-.2.4-.4.4-.7v-.4h-1.2c-.8 0-1.2.2-1.2.7zM119.7 190h1.1l1.5 3.7 1.5-3.7h1.1l-2 4.9h-1.2l-2-4.9zM125.7 189c-.1-.1-.2-.3-.2-.5s.1-.3.2-.5c.1-.1.3-.2.5-.2s.3.1.5.2c.1.1.2.3.2.5s-.1.3-.2.5c-.1.1-.3.2-.5.2s-.3 0-.5-.2zm0 5.9V190h1v4.9h-1zM128.6 194.3c-.5-.5-.7-1.1-.7-1.8 0-.8.2-1.4.7-1.8.5-.5 1-.7 1.7-.7s1.2.3 1.6.8v-2.7h1v6.9h-1v-.7c-.4.5-.9.8-1.7.8-.6-.1-1.1-.3-1.6-.8zm.8-3c-.3.3-.4.7-.4 1.2s.2.8.5 1.1c.3.3.7.4 1.1.4.4 0 .8-.1 1-.4.3-.3.4-.7.4-1.1 0-.5-.1-.9-.4-1.2-.3-.3-.6-.5-1-.5-.6.1-.9.2-1.2.5zM137 194.9V190h1v.9c.1-.3.4-.5.7-.7.3-.2.6-.3 1-.3.8 0 1.3.3 1.6.9.5-.6 1.1-.9 1.8-.9.6 0 1 .2 1.3.5.3.3.5.8.5 1.5v3h-1v-2.7c0-.9-.4-1.4-1.1-1.4-.4 0-.7.1-.9.3-.3.2-.4.6-.4 1v2.7h-1v-2.7c0-.5-.1-.8-.3-1-.2-.2-.4-.3-.8-.3s-.7.1-.9.4c-.3.2-.4.6-.4 1v2.7H137zM146.8 194.3c-.5-.4-.7-1.1-.7-1.9 0-.8.2-1.4.7-1.9.5-.5 1.1-.7 1.7-.7.7 0 1.2.2 1.7.6.5.4.7 1 .7 1.7v.7H147c0 .3.2.6.5.8.3.2.6.3 1 .3.6 0 1.1-.2 1.4-.5l.6.6c-.5.5-1.2.8-2.1.8-.6.2-1.2 0-1.6-.5zm.3-2.2h2.8c0-.4-.1-.7-.4-1-.3-.2-.6-.3-1-.3s-.7.1-1 .3c-.3.3-.4.6-.4 1zM152.1 194.9V188h1v4l2-2.1h1.3l-1.9 2 2 3h-1.3l-1.5-2.2-.7.8v1.4h-.9zM157.9 194.3c-.5-.4-.7-1.1-.7-1.9 0-.8.2-1.4.7-1.9.5-.5 1.1-.7 1.7-.7.7 0 1.2.2 1.7.6.5.4.7 1 .7 1.7v.7h-3.9c0 .3.2.6.5.8.3.2.6.3 1 .3.6 0 1.1-.2 1.4-.5l.6.6c-.5.5-1.2.8-2.1.8-.6.2-1.2 0-1.6-.5zm.3-2.2h2.8c0-.4-.1-.7-.4-1-.3-.2-.6-.3-1-.3s-.7.1-1 .3c-.3.3-.4.6-.4 1zM163.2 194.9V190h1v1c.2-.3.4-.5.7-.7.3-.2.6-.3.9-.3v1h-.1c-.5 0-.9.2-1.2.5-.3.3-.4.8-.4 1.3v2.1h-.9zM166.9 189c-.1-.1-.2-.3-.2-.5s.1-.3.2-.5c.1-.1.3-.2.5-.2s.3.1.5.2c.1.1.2.3.2.5s-.1.3-.2.5c-.1.1-.3.2-.5.2s-.4 0-.5-.2zm-.1 5.9V190h1v4.9h-1zM168.9 194.3l.5-.8c.6.4 1.1.6 1.7.6.2 0 .4-.1.6-.2.1-.1.2-.2.2-.4s-.3-.5-1-.7h-.1c-1-.3-1.5-.7-1.5-1.4 0-.5.2-.8.5-1.1.4-.3.8-.4 1.4-.4.6 0 1.1.2 1.6.5l-.4.8c-.4-.3-.8-.4-1.3-.4-.2 0-.4 0-.6.1-.2.1-.2.2-.2.4s.1.3.2.4c.1.1.3.1.5.2s.4.1.5.1c.2 0 .3.1.5.2.1.1.3.1.5.3.3.2.5.6.5 1 0 .5-.2.8-.5 1.1-.3.3-.8.4-1.3.4-.4 0-.7-.1-1.1-.2-.5-.1-.9-.3-1.2-.5zM174 194.9V188h1v2.8c.1-.3.4-.5.7-.7.3-.2.6-.3 1-.3.6 0 1 .2 1.3.5.3.3.5.8.5 1.5v3h-1v-2.7c0-.9-.4-1.4-1.1-1.4-.4 0-.7.1-.9.4-.3.2-.4.6-.4 1v2.7H174zM179.4 190h1.1l1.5 3.7 1.5-3.7h1.1l-2 4.9h-1.2l-2-4.9zM185.4 189c-.1-.1-.2-.3-.2-.5s.1-.3.2-.5c.1-.1.3-.2.5-.2s.3.1.5.2c.1.1.2.3.2.5s-.1.3-.2.5c-.1.1-.3.2-.5.2s-.4 0-.5-.2zm-.1 5.9V190h1v4.9h-1zM187.9 194.9V188h1v6.9h-1zM190.5 189c-.1-.1-.2-.3-.2-.5s.1-.3.2-.5c.1-.1.3-.2.5-.2s.3.1.5.2c.1.1.2.3.2.5s-.1.3-.2.5c-.1.1-.3.2-.5.2-.3 0-.4 0-.5-.2zm-.1 5.9V190h1v4.9h-1z"/></g></svg>